<?xml version="1.0" encoding="UTF-8"?> <svg xmlns="http://www.w3.org/2000/svg" width="413" height="232" viewBox="0 0 413 232" fill="none"><rect width="413" height="232" fill="#2968FE"></rect><g clip-path="url(#clip0_1762_41441)"><path d="M293.682 99.532C293.103 98.5918 291.952 98.1971 290.912 98.5863C289.861 98.9783 289.279 100.036 289.484 101.182C289.671 102.221 290.607 102.964 291.716 102.98C292.891 102.997 293.525 102.287 294 101.344V100.072C293.893 99.891 293.792 99.7101 293.682 99.532ZM291.727 102.533C290.725 102.533 289.94 101.741 289.932 100.735C289.926 99.7101 290.742 98.8906 291.757 98.9043C292.732 98.918 293.545 99.7567 293.534 100.738C293.52 101.733 292.713 102.539 291.727 102.536V102.533Z" fill="#F8F8F8"></path><path d="M153.858 82.9379C154.317 82.513 154.344 81.8004 153.913 81.3399C153.798 81.2165 153.663 81.1124 153.534 81H152.722C152.584 81.1014 152.433 81.1891 152.313 81.307C151.865 81.7373 151.86 82.4774 152.288 82.9105C152.694 83.3189 153.43 83.3299 153.855 82.9352L153.858 82.9379Z" fill="#F8F8F8"></path><path d="M225.98 115.737C225.34 115.238 224.599 114.918 223.852 114.539C223.918 114.444 223.927 114.422 223.94 114.413C224.02 114.359 224.102 114.307 224.182 114.257C226.683 112.725 228 110.496 228.066 107.575C228.132 104.688 227.259 102.175 224.898 100.346C223.172 99.0061 221.148 98.4606 218.994 98.4496C214.222 98.425 209.451 98.4414 204.68 98.4414C204.105 98.4414 203.818 98.7219 203.818 99.2829C203.818 110.05 203.818 120.819 203.818 131.586C203.818 131.701 203.829 131.819 203.818 131.931C203.78 132.34 203.98 132.463 204.367 132.463C209.506 132.449 214.645 132.532 219.779 132.406C222.609 132.337 225.066 131.164 226.9 128.93C228.805 126.608 229.318 123.906 228.915 121C228.621 118.879 227.701 117.08 225.977 115.737H225.98ZM207.961 101.709C211.474 101.725 214.988 101.709 218.505 101.725C219.315 101.728 220.122 101.821 220.91 102.04C223.07 102.649 224.388 104.266 224.588 106.5C224.758 108.413 224.429 110.151 222.933 111.502C221.794 112.533 220.407 112.974 218.897 113.005C217.102 113.037 215.307 113.013 213.511 113.013V113.018C211.658 113.018 209.803 113.005 207.95 113.029C207.439 113.035 207.283 112.862 207.285 112.363C207.302 109.033 207.302 105.7 207.285 102.369C207.283 101.854 207.466 101.711 207.961 101.714V101.709ZM224.945 125.712C223.896 127.949 221.92 128.946 219.49 129.1C219.49 129.1 219.49 129.1 219.488 129.1C219.488 129.1 219.488 129.1 219.49 129.1C215.43 129.097 211.37 129.092 207.31 129.089L207.305 129.083C207.305 124.846 207.305 120.605 207.305 116.368L207.31 116.362C207.343 116.343 207.376 116.332 207.409 116.324C207.376 116.335 207.343 116.346 207.31 116.362C211.332 116.362 215.353 116.357 219.375 116.354C221.371 116.466 223.227 116.954 224.423 118.695C225.944 120.907 226.062 123.335 224.945 125.715V125.712Z" fill="#F8F8F8"></path><path d="M287.719 124.901C287.645 123.577 287.645 122.247 287.389 120.934C286.873 118.273 285.531 116.357 282.739 115.718C282.497 115.663 282.256 115.614 282.011 115.562C282.011 115.529 282.017 115.499 282.02 115.466C282.278 115.389 282.536 115.318 282.794 115.238C285.163 114.496 286.777 112.95 287.658 110.647C288.227 109.162 288.364 107.618 288.221 106.045C287.977 103.32 286.719 101.226 284.317 99.864C282.58 98.8772 280.677 98.4743 278.701 98.4633C274.278 98.4386 269.856 98.4551 265.433 98.4551C264.84 98.4551 264.544 98.7438 264.544 99.3212C264.544 110.069 264.544 120.814 264.544 131.561C264.544 131.657 264.552 131.756 264.544 131.849C264.497 132.288 264.659 132.488 265.129 132.458C265.628 132.425 266.133 132.455 266.636 132.449C267.822 132.441 267.704 132.567 267.706 131.411C267.709 126.808 267.706 122.206 267.706 117.601C267.706 116.834 267.706 116.831 268.458 116.831C271.78 116.831 275.102 116.831 278.423 116.831C281.438 116.831 283.137 118.073 284.032 120.937C284.122 121.23 284.199 121.529 284.262 121.831C284.677 123.818 284.746 125.841 284.844 127.858C284.91 129.223 284.96 130.591 285.292 131.926C285.352 132.167 285.38 132.441 285.726 132.441C286.634 132.441 287.54 132.441 288.449 132.441C288.704 132.441 288.792 132.337 288.701 132.077C287.883 129.749 287.85 127.318 287.716 124.898L287.719 124.901ZM277.669 113.481C274.558 113.476 271.451 113.47 268.34 113.487C267.876 113.487 267.698 113.369 267.698 112.876C267.715 109.389 267.717 105.902 267.698 102.419C267.695 101.887 267.898 101.774 268.379 101.78C270.136 101.802 271.893 101.788 274.02 101.788C275.695 101.854 277.745 101.662 279.785 101.914C280.282 101.975 280.779 102.073 281.259 102.213C283.604 102.887 284.943 104.584 285.075 107.015C285.267 110.581 283.277 112.9 279.631 113.361C278.978 113.443 278.327 113.481 277.669 113.481Z" fill="#F8F8F8"></path><path d="M254.84 115.935C253.742 115.274 252.565 114.797 251.351 114.4C249.106 113.668 246.769 113.322 244.477 112.782C242.803 112.388 241.147 111.927 239.668 111.004C238.644 110.365 237.924 109.501 237.658 108.298C237.062 105.601 238.377 103.03 241.035 101.912C243.827 100.736 246.712 100.651 249.589 101.561C251.875 102.284 253.421 103.803 254.063 106.16C254.195 106.645 254.264 107.141 254.288 107.64C254.308 108.016 254.464 108.18 254.862 108.167C255.614 108.142 256.369 108.136 257.122 108.167C257.599 108.186 257.772 108.032 257.745 107.544C257.542 104.008 256.051 101.221 252.941 99.4062C250.761 98.1344 248.359 97.7369 245.408 97.7369C244.274 97.7205 242.701 97.8904 241.177 98.3591C237.277 99.5624 234.616 101.922 234.147 106.174C233.809 109.214 234.748 111.76 237.351 113.558C238.408 114.287 239.569 114.797 240.774 115.23C243.129 116.074 245.611 116.39 248.035 116.949C249.808 117.357 251.557 117.845 253.1 118.859C254.228 119.602 254.98 120.611 255.186 121.979C255.683 125.282 254.148 127.94 250.994 129.089C248.274 130.081 245.474 130.221 242.674 129.503C239.044 128.571 236.741 125.926 236.623 122.392C236.612 122.036 236.461 121.924 236.126 121.929C235.393 121.94 234.658 121.929 233.925 121.932C233.104 121.932 233.074 121.954 233.129 122.782C233.428 127.137 235.638 130.191 239.588 131.953C243.088 133.516 246.745 133.505 250.434 132.715C251.439 132.501 252.403 132.159 253.325 131.704C257.539 129.629 259.153 125.923 258.579 121.482C258.264 119.029 256.957 117.204 254.843 115.932L254.84 115.935Z" fill="#F8F8F8"></path><path d="M167.629 100.36C168.856 100.393 169.858 99.4309 169.874 98.2057C169.891 96.9832 168.922 95.9936 167.694 95.9772C166.467 95.9635 165.474 96.9393 165.474 98.1591C165.474 99.3487 166.429 100.327 167.629 100.357V100.36Z" fill="#F8F8F8"></path><path d="M177.635 119.413C177.624 118.209 176.602 117.214 175.397 117.242C174.178 117.269 173.218 118.27 173.24 119.489C173.262 120.682 174.247 121.636 175.444 121.625C176.671 121.614 177.646 120.63 177.635 119.413Z" fill="#F8F8F8"></path><path d="M160.848 96.4264C162.075 96.4401 163.044 95.4725 163.038 94.2336C163.033 93.0029 162.056 92.0353 160.831 92.049C159.629 92.0627 158.665 93.022 158.654 94.2144C158.643 95.4314 159.618 96.4127 160.848 96.4264Z" fill="#F8F8F8"></path><path d="M138.475 130.643C137.283 130.649 136.306 131.619 136.292 132.806C136.278 134.025 137.25 134.993 138.491 134.996C139.759 134.996 140.698 134.072 140.687 132.83C140.679 131.608 139.696 130.638 138.475 130.646V130.643Z" fill="#F8F8F8"></path><path d="M153.079 90.6924C151.879 90.6951 150.907 91.6517 150.891 92.8441C150.874 94.0666 151.841 95.0397 153.079 95.0451C154.325 95.0506 155.294 94.0968 155.289 92.8715C155.283 91.638 154.32 90.6896 153.076 90.6924H153.079Z" fill="#F8F8F8"></path><path d="M163.038 136.785C163.049 135.56 162.078 134.584 160.848 134.582C159.621 134.582 158.632 135.563 158.641 136.777C158.646 137.967 159.612 138.934 160.812 138.953C162.039 138.973 163.027 138.011 163.038 136.785Z" fill="#F8F8F8"></path><path d="M153.04 135.95C151.832 135.972 150.893 136.923 150.888 138.131C150.882 139.359 151.849 140.313 153.092 140.308C154.327 140.305 155.283 139.34 155.272 138.107C155.261 136.882 154.273 135.928 153.04 135.95Z" fill="#F8F8F8"></path><path d="M167.695 130.656C166.47 130.645 165.479 131.616 165.474 132.835C165.468 134.058 166.445 135.031 167.678 135.026C168.883 135.02 169.844 134.077 169.871 132.877C169.899 131.66 168.927 130.67 167.695 130.656Z" fill="#F8F8F8"></path><path d="M175.496 109.389C174.275 109.35 173.264 110.31 173.24 111.532C173.215 112.755 174.179 113.747 175.406 113.761C176.636 113.777 177.624 112.815 177.64 111.593C177.654 110.411 176.696 109.424 175.496 109.389Z" fill="#F8F8F8"></path><path d="M145.308 134.579C144.097 134.579 143.136 135.525 143.125 136.725C143.114 137.95 144.08 138.934 145.305 138.943C146.543 138.951 147.509 137.997 147.509 136.766C147.509 135.536 146.543 134.576 145.31 134.576L145.308 134.579Z" fill="#F8F8F8"></path><path d="M143.127 94.2748C143.146 95.4672 144.126 96.4211 145.329 96.4156C146.567 96.4128 147.528 95.4507 147.528 94.22C147.528 92.9948 146.539 92.0299 145.307 92.0491C144.08 92.0683 143.108 93.0633 143.127 94.2748Z" fill="#F8F8F8"></path><path d="M172.748 106.387C173.956 106.387 174.961 105.379 174.953 104.178C174.944 102.969 173.951 102.013 172.713 102.018C171.494 102.024 170.56 102.961 170.558 104.178C170.555 105.406 171.527 106.385 172.748 106.387Z" fill="#F8F8F8"></path><path d="M133.396 128.984C134.656 129.004 135.609 128.085 135.623 126.841C135.636 125.635 134.653 124.626 133.446 124.604C132.271 124.585 131.285 125.555 131.266 126.753C131.247 128.025 132.144 128.965 133.396 128.982V128.984Z" fill="#F8F8F8"></path><path d="M172.754 129.001C173.959 129.001 174.92 128.05 174.936 126.849C174.952 125.629 173.978 124.64 172.754 124.637C171.51 124.632 170.555 125.58 170.555 126.822C170.555 128.058 171.507 129.004 172.754 129.004V129.001Z" fill="#F8F8F8"></path><path d="M138.499 100.349C139.731 100.349 140.692 99.3866 140.689 98.1532C140.689 96.9197 139.715 95.9603 138.488 95.9768C137.244 95.996 136.322 96.9471 136.33 98.1997C136.338 99.414 137.283 100.349 138.499 100.346V100.349Z" fill="#F8F8F8"></path><path d="M128.565 111.54C128.551 112.779 129.501 113.752 130.731 113.758C131.958 113.763 132.921 112.798 132.924 111.562C132.924 110.318 131.974 109.372 130.731 109.38C129.52 109.389 128.578 110.326 128.565 111.54Z" fill="#F8F8F8"></path><path d="M130.769 121.603C131.988 121.592 132.921 120.649 132.921 119.429C132.921 118.201 131.999 117.264 130.78 117.25C129.514 117.236 128.581 118.155 128.578 119.418C128.573 120.674 129.517 121.614 130.769 121.603Z" fill="#F8F8F8"></path><path d="M133.495 102.005C132.235 101.988 131.277 102.915 131.269 104.159C131.26 105.401 132.161 106.333 133.388 106.352C134.651 106.371 135.603 105.45 135.614 104.2C135.625 102.961 134.719 102.024 133.498 102.007L133.495 102.005Z" fill="#F8F8F8"></path><path d="M147.215 129.892C146.307 129.903 145.552 130.659 145.563 131.553C145.574 132.463 146.323 133.195 147.234 133.184C148.157 133.173 148.882 132.444 148.876 131.528C148.873 130.618 148.124 129.881 147.212 129.892H147.215Z" fill="#F8F8F8"></path><path d="M171.435 95.3796C172.355 95.3631 173.071 94.6231 173.06 93.7048C173.049 92.7783 172.328 92.0849 171.383 92.0958C170.455 92.1068 169.744 92.8332 169.758 93.7569C169.772 94.6779 170.513 95.396 171.433 95.3796H171.435Z" fill="#F8F8F8"></path><path d="M164.482 142.196C164.471 141.289 163.714 140.546 162.811 140.56C161.891 140.573 161.177 141.305 161.183 142.229C161.191 143.142 161.929 143.871 162.846 143.863C163.749 143.857 164.491 143.101 164.482 142.193V142.196Z" fill="#F8F8F8"></path><path d="M160.584 131.564C160.59 130.651 159.857 129.905 158.951 129.897C158.051 129.889 157.29 130.632 157.274 131.531C157.257 132.419 158.018 133.181 158.924 133.184C159.854 133.189 160.582 132.479 160.587 131.561L160.584 131.564Z" fill="#F8F8F8"></path><path d="M147.204 97.8161C146.282 97.8298 145.573 98.5644 145.595 99.4909C145.617 100.409 146.364 101.127 147.273 101.108C148.173 101.089 148.911 100.321 148.895 99.4224C148.876 98.5151 148.126 97.8024 147.204 97.8161Z" fill="#F8F8F8"></path><path d="M153.087 88.7297C153.985 88.738 154.743 87.9869 154.748 87.0851C154.754 86.1833 154.01 85.4295 153.101 85.4186C152.203 85.4076 151.451 86.1614 151.451 87.0714C151.451 87.9979 152.165 88.7215 153.087 88.7297Z" fill="#F8F8F8"></path><path d="M162.837 90.4536C163.738 90.4536 164.49 89.6999 164.49 88.7981C164.49 87.8798 163.757 87.1479 162.846 87.1479C161.934 87.1479 161.188 87.8908 161.188 88.7926C161.188 89.6971 161.94 90.4536 162.837 90.4536Z" fill="#F8F8F8"></path><path d="M158.967 101.108C159.876 101.1 160.617 100.346 160.604 99.4443C160.59 98.526 159.851 97.8024 158.937 97.8161C158.007 97.8326 157.293 98.5562 157.304 99.4744C157.315 100.395 158.051 101.116 158.965 101.108H158.967Z" fill="#F8F8F8"></path><path d="M154.748 98.4465C154.762 97.5392 154.029 96.7881 153.115 96.7799C152.192 96.7689 151.454 97.4898 151.448 98.4053C151.443 99.3346 152.154 100.064 153.071 100.069C153.993 100.075 154.729 99.3592 154.745 98.4465H154.748Z" fill="#F8F8F8"></path><path d="M182.798 120.465C182.806 119.544 182.09 118.804 181.178 118.796C180.264 118.788 179.512 119.514 179.498 120.419C179.485 121.331 180.204 122.063 181.132 122.085C182.046 122.107 182.79 121.384 182.798 120.465Z" fill="#F8F8F8"></path><path d="M171.595 118.448C171.581 117.53 170.851 116.82 169.926 116.831C168.995 116.842 168.303 117.557 168.312 118.494C168.323 119.421 169.053 120.136 169.972 120.117C170.892 120.101 171.606 119.366 171.592 118.445L171.595 118.448Z" fill="#F8F8F8"></path><path d="M177.78 99.636C176.874 99.6251 176.136 100.365 176.136 101.283C176.136 102.213 176.844 102.936 177.764 102.939C178.681 102.944 179.413 102.218 179.419 101.3C179.424 100.393 178.689 99.6443 177.78 99.6333V99.636Z" fill="#F8F8F8"></path><path d="M140.44 128.552C140.429 129.492 141.12 130.21 142.048 130.226C142.949 130.243 143.709 129.505 143.728 128.601C143.748 127.674 143.045 126.956 142.106 126.943C141.164 126.929 140.451 127.617 140.44 128.552Z" fill="#F8F8F8"></path><path d="M143.364 140.549C142.463 140.53 141.706 141.27 141.697 142.177C141.689 143.104 142.395 143.838 143.309 143.852C144.223 143.869 144.97 143.145 144.978 142.232C144.986 141.308 144.278 140.566 143.364 140.546V140.549Z" fill="#F8F8F8"></path><path d="M167.919 125.704C168.828 125.698 169.553 124.955 169.547 124.037C169.542 123.102 168.833 122.398 167.903 122.398C166.989 122.398 166.261 123.135 166.267 124.054C166.272 124.975 167.008 125.706 167.919 125.704Z" fill="#F8F8F8"></path><path d="M164.084 100.785C163.162 100.796 162.443 101.522 162.448 102.438C162.454 103.361 163.17 104.063 164.106 104.06C165.037 104.055 165.751 103.337 165.742 102.416C165.732 101.495 164.999 100.776 164.084 100.787V100.785Z" fill="#F8F8F8"></path><path d="M128.386 128.061C127.466 128.066 126.758 128.792 126.764 129.722C126.769 130.645 127.499 131.369 128.416 131.364C129.319 131.358 130.052 130.607 130.05 129.691C130.044 128.781 129.303 128.055 128.386 128.061Z" fill="#F8F8F8"></path><path d="M141.7 88.8172C141.714 89.7273 142.466 90.4619 143.372 90.4509C144.27 90.4399 144.986 89.6889 144.978 88.7624C144.97 87.8332 144.248 87.1315 143.32 87.1452C142.398 87.1617 141.687 87.8963 141.7 88.8145V88.8172Z" fill="#F8F8F8"></path><path d="M128.369 102.937C129.267 102.967 130.03 102.232 130.044 101.325C130.06 100.404 129.344 99.65 128.443 99.6336C127.526 99.6171 126.78 100.335 126.766 101.251C126.749 102.18 127.441 102.909 128.369 102.939V102.937Z" fill="#F8F8F8"></path><path d="M177.75 128.064C176.839 128.075 176.114 128.82 176.122 129.736C176.13 130.646 176.88 131.383 177.788 131.372C178.705 131.361 179.405 130.635 179.4 129.7C179.394 128.771 178.67 128.053 177.75 128.064Z" fill="#F8F8F8"></path><path d="M171.414 135.651C170.466 135.651 169.764 136.336 169.764 137.271C169.764 138.197 170.472 138.915 171.4 138.921C172.322 138.926 173.05 138.211 173.055 137.287C173.063 136.364 172.35 135.654 171.414 135.651Z" fill="#F8F8F8"></path><path d="M153.076 142.279C152.162 142.281 151.435 143.016 151.438 143.931C151.44 144.847 152.181 145.593 153.085 145.582C153.999 145.571 154.713 144.841 154.713 143.918C154.713 142.994 153.993 142.273 153.076 142.276V142.279Z" fill="#F8F8F8"></path><path d="M139.899 106.968C139.899 106.034 139.161 105.285 138.26 105.305C137.329 105.324 136.61 106.058 136.621 106.979C136.629 107.892 137.384 108.621 138.304 108.602C139.218 108.586 139.902 107.884 139.902 106.968H139.899Z" fill="#F8F8F8"></path><path d="M134.768 135.634C133.821 135.634 133.121 136.325 133.121 137.26C133.121 138.186 133.835 138.902 134.76 138.904C135.702 138.904 136.399 138.211 136.399 137.273C136.399 136.33 135.707 135.634 134.765 135.634H134.768Z" fill="#F8F8F8"></path><path d="M125.031 118.794C124.095 118.785 123.39 119.49 123.39 120.433C123.39 121.354 124.059 122.042 124.979 122.064C125.921 122.086 126.651 121.389 126.662 120.46C126.673 119.536 125.956 118.802 125.031 118.794Z" fill="#F8F8F8"></path><path d="M134.593 112.547C134.604 113.487 135.307 114.175 136.251 114.169C137.165 114.164 137.901 113.418 137.89 112.511C137.879 111.601 137.127 110.872 136.215 110.883C135.282 110.897 134.582 111.612 134.596 112.544L134.593 112.547Z" fill="#F8F8F8"></path><path d="M134.779 95.3494C135.729 95.3494 136.402 94.6724 136.402 93.7158C136.402 92.7701 135.707 92.0739 134.771 92.0821C133.854 92.0876 133.121 92.8249 133.124 93.7295C133.127 94.6532 133.838 95.3494 134.779 95.3494Z" fill="#F8F8F8"></path><path d="M153.049 134.204C154.007 134.217 154.707 133.538 154.712 132.592C154.718 131.646 154.021 130.936 153.084 130.934C152.162 130.934 151.435 131.66 151.435 132.586C151.435 133.494 152.132 134.193 153.046 134.206L153.049 134.204Z" fill="#F8F8F8"></path><path d="M138.261 125.665C139.188 125.662 139.902 124.95 139.908 124.023C139.913 123.119 139.172 122.384 138.252 122.381C137.338 122.379 136.616 123.108 136.616 124.034C136.616 124.969 137.322 125.671 138.261 125.665Z" fill="#F8F8F8"></path><path d="M142.076 100.769C141.17 100.769 140.44 101.511 140.442 102.43C140.442 103.353 141.162 104.055 142.1 104.055C143.034 104.055 143.737 103.345 143.734 102.41C143.731 101.498 142.993 100.771 142.076 100.771V100.769Z" fill="#F8F8F8"></path><path d="M181.17 112.207C182.109 112.201 182.798 111.499 182.792 110.556C182.784 109.627 182.065 108.92 181.137 108.934C180.215 108.945 179.49 109.679 179.498 110.589C179.506 111.497 180.245 112.212 181.17 112.207Z" fill="#F8F8F8"></path><path d="M167.928 105.335C166.997 105.33 166.275 106.037 166.27 106.96C166.261 107.873 166.989 108.611 167.906 108.621C168.823 108.63 169.542 107.914 169.547 106.982C169.556 106.034 168.872 105.34 167.928 105.335Z" fill="#F8F8F8"></path><path d="M137.884 118.437C137.865 117.53 137.107 116.806 136.193 116.82C135.284 116.834 134.609 117.527 134.604 118.451C134.601 119.416 135.271 120.085 136.237 120.082C137.159 120.079 137.903 119.336 137.884 118.437Z" fill="#F8F8F8"></path><path d="M125.039 108.92C124.111 108.912 123.392 109.616 123.384 110.543C123.376 111.472 124.084 112.198 125.001 112.206C125.918 112.212 126.659 111.488 126.662 110.578C126.667 109.646 125.964 108.928 125.039 108.92Z" fill="#F8F8F8"></path><path d="M168.317 112.508C168.306 113.451 168.995 114.175 169.915 114.186C170.835 114.197 171.581 113.484 171.606 112.577C171.631 111.675 170.9 110.929 169.984 110.916C169.023 110.902 168.328 111.568 168.314 112.508H168.317Z" fill="#F8F8F8"></path><path d="M164.079 126.951C163.142 126.959 162.44 127.663 162.442 128.595C162.445 129.511 163.181 130.243 164.092 130.237C165.009 130.232 165.72 129.505 165.72 128.579C165.72 127.644 165.012 126.945 164.076 126.951H164.079Z" fill="#F8F8F8"></path><path d="M124.106 131.068C123.48 131.057 122.964 131.561 122.961 132.186C122.958 132.792 123.43 133.274 124.048 133.299C124.682 133.323 125.212 132.838 125.231 132.216C125.25 131.605 124.734 131.079 124.106 131.068Z" fill="#F8F8F8"></path><path d="M141.612 85.2538C142.238 85.273 142.752 84.7769 142.757 84.141C142.763 83.5051 142.269 82.9897 141.645 82.9897C141.017 82.9897 140.536 83.4886 140.539 84.1382C140.539 84.7632 140.998 85.2374 141.612 85.2566V85.2538Z" fill="#F8F8F8"></path><path d="M182.101 131.07C181.477 131.06 180.953 131.578 180.953 132.197C180.953 132.83 181.464 133.34 182.087 133.335C182.688 133.329 183.185 132.841 183.201 132.238C183.221 131.61 182.718 131.081 182.098 131.07H182.101Z" fill="#F8F8F8"></path><path d="M141.681 145.746C141.047 145.727 140.523 146.22 140.506 146.843C140.492 147.473 140.998 148.005 141.615 148.007C142.241 148.007 142.752 147.5 142.754 146.87C142.754 146.25 142.291 145.763 141.678 145.746H141.681Z" fill="#F8F8F8"></path><path d="M153.076 147.791C152.444 147.791 151.961 148.254 151.942 148.865C151.925 149.484 152.439 149.994 153.084 149.997C153.704 150 154.187 149.534 154.207 148.914C154.226 148.276 153.734 147.788 153.076 147.791Z" fill="#F8F8F8"></path><path d="M164.52 85.2541C165.138 85.2678 165.671 84.7579 165.679 84.1357C165.687 83.5519 165.19 83.0229 164.6 82.9927C163.996 82.9598 163.442 83.4724 163.411 84.0891C163.381 84.6976 163.897 85.2404 164.52 85.2541Z" fill="#F8F8F8"></path><path d="M131.521 91.0512C132.144 91.0841 132.669 90.5962 132.691 89.963C132.713 89.3436 132.268 88.8502 131.656 88.8091C131.011 88.7652 130.492 89.2202 130.462 89.8561C130.429 90.4921 130.895 91.0183 131.524 91.0512H131.521Z" fill="#F8F8F8"></path><path d="M120.131 108.575C119.5 108.567 118.997 109.066 119 109.696C119.003 110.335 119.5 110.825 120.134 110.817C120.746 110.809 121.235 110.329 121.246 109.726C121.254 109.093 120.76 108.58 120.134 108.572L120.131 108.575Z" fill="#F8F8F8"></path><path d="M174.634 139.954C174.016 139.937 173.478 140.453 173.473 141.064C173.467 141.689 173.972 142.193 174.606 142.196C175.23 142.196 175.702 141.744 175.726 141.122C175.748 140.486 175.265 139.968 174.634 139.951V139.954Z" fill="#F8F8F8"></path><path d="M182.043 99.9324C182.649 99.957 183.157 99.502 183.201 98.8935C183.251 98.2439 182.806 97.7423 182.153 97.7039C181.505 97.6655 180.989 98.1206 180.956 98.7592C180.923 99.3842 181.409 99.9104 182.043 99.9351V99.9324Z" fill="#F8F8F8"></path><path d="M164.502 145.746C163.881 145.763 163.382 146.3 163.409 146.919C163.437 147.52 163.939 148.01 164.532 148.013C165.152 148.013 165.658 147.495 165.647 146.864C165.638 146.229 165.128 145.73 164.502 145.749V145.746Z" fill="#F8F8F8"></path><path d="M131.594 139.949C130.96 139.932 130.463 140.417 130.455 141.059C130.447 141.708 130.922 142.196 131.564 142.196C132.163 142.196 132.665 141.711 132.687 141.114C132.709 140.469 132.24 139.968 131.597 139.951L131.594 139.949Z" fill="#F8F8F8"></path><path d="M174.582 91.0513C175.208 91.0705 175.718 90.5771 175.729 89.9412C175.74 89.297 175.254 88.8036 174.612 88.8091C174.005 88.8119 173.5 89.2915 173.478 89.8836C173.456 90.5003 173.959 91.0348 174.579 91.054L174.582 91.0513Z" fill="#F8F8F8"></path><path d="M186.075 120.183C185.427 120.178 184.942 120.663 184.944 121.312C184.947 121.951 185.458 122.442 186.097 122.42C186.726 122.401 187.168 121.929 187.162 121.293C187.157 120.663 186.69 120.191 186.075 120.183Z" fill="#F8F8F8"></path><path d="M124.123 99.9268C124.724 99.9131 125.226 99.4088 125.229 98.8085C125.235 98.2 124.688 97.6655 124.076 97.6709C123.486 97.6792 122.973 98.1972 122.97 98.792C122.964 99.4005 123.513 99.9405 124.123 99.9268Z" fill="#F8F8F8"></path><path d="M186.086 108.608C185.422 108.597 184.95 109.049 184.944 109.699C184.939 110.351 185.406 110.82 186.062 110.82C186.707 110.82 187.193 110.332 187.184 109.696C187.173 109.074 186.715 108.619 186.086 108.608Z" fill="#F8F8F8"></path><path d="M120.096 120.183C119.464 120.191 119.008 120.649 119.003 121.279C118.997 121.929 119.475 122.395 120.137 122.39C120.768 122.384 121.229 121.926 121.232 121.299C121.235 120.657 120.743 120.172 120.096 120.18V120.183Z" fill="#F8F8F8"></path><path d="M292.153 99.4085C290.945 99.1947 290.769 99.3345 290.769 100.516C290.769 100.573 290.769 100.631 290.769 100.689C290.769 100.919 290.756 101.149 290.775 101.379C290.789 101.571 290.684 101.848 290.995 101.892C291.329 101.939 291.275 101.653 291.299 101.456C291.324 101.272 291.357 101.113 291.585 101.092C291.782 101.072 291.914 101.16 292.005 101.327C292.087 101.478 292.169 101.632 292.266 101.774C292.384 101.944 292.576 101.966 292.724 101.862C292.875 101.758 292.735 101.607 292.666 101.516C292.427 101.207 292.488 100.982 292.721 100.669C293.1 100.157 292.782 99.5182 292.153 99.4085ZM291.714 100.612C291.456 100.628 291.261 100.557 291.261 100.242C291.261 99.8416 291.535 99.8471 291.815 99.8526C292.071 99.8608 292.362 99.8718 292.353 100.214C292.342 100.617 291.999 100.598 291.714 100.615V100.612Z" fill="#F8F8F8"></path></g><defs><clipPath id="clip0_1762_41441"><rect width="175" height="69" fill="white" transform="translate(119 81)"></rect></clipPath></defs></svg> 