<?xml version="1.0" encoding="UTF-8"?> <svg xmlns="http://www.w3.org/2000/svg" width="413" height="232" viewBox="0 0 413 232" fill="none"><rect width="413" height="232" fill="#2968FE"></rect><g clip-path="url(#clip0_1762_41442)"><mask id="mask0_1762_41442" style="mask-type:luminance" maskUnits="userSpaceOnUse" x="125" y="72" width="162" height="87"><path d="M287 72H125V158.728H287V72Z" fill="white"></path></mask><g mask="url(#mask0_1762_41442)"><path d="M263.786 131.664C267.121 131.214 269.821 133.384 270.086 136.294C270.535 140.473 266.009 144.388 261.668 141.69C260.212 140.791 259.101 139.018 259.101 137.061C259.101 135.659 259.762 134.336 260.053 133.886C260.9 132.802 262.065 131.902 263.786 131.664Z" fill="white"></path><path d="M242.371 110.501C248.063 109.787 250.233 116.453 247.11 119.76C246.448 120.421 245.336 121.215 244.092 121.373C243.033 121.532 242.133 121.267 241.312 121.32C238.242 121.426 235.621 123.728 235.357 126.955C235.251 128.172 235.648 129.415 235.304 130.685C234.801 132.457 233.081 134.203 231.016 134.521C226.542 135.235 222.863 130.738 225.165 126.426C226.065 124.812 227.627 123.754 229.507 123.648C230.301 123.595 231.122 123.807 232.075 123.701C235.092 123.49 237.421 121.135 237.713 118.225C237.819 117.326 237.501 115.395 237.819 114.204C238.348 112.379 240.095 110.765 242.371 110.501Z" fill="white"></path><path d="M266.591 107.695C270.218 107.299 273.182 110.261 272.494 114.15C271.435 119.996 262.33 119.943 261.667 113.859C261.456 111.69 262.383 110.076 263.282 109.23C263.971 108.542 264.897 107.881 266.591 107.695Z" fill="white"></path><path d="M278.293 106.532C281.866 106.083 284.54 108.649 284.54 111.929C284.54 114.442 282.633 117.008 280.013 117.325C278.954 117.484 278.054 117.219 277.287 117.272C274.004 117.378 271.543 119.733 271.251 122.907C271.145 123.859 271.41 124.812 271.304 125.923C271.013 128.594 268.895 130.446 266.46 130.658C265.56 130.711 264.554 130.499 263.681 130.605C260.557 130.896 258.201 133.33 258.043 136.451C257.99 137.509 258.201 138.567 258.043 139.573C257.196 144.255 250.339 145.419 247.878 141.186C245.972 137.906 248.09 133.726 251.346 133.039C252.801 132.748 253.913 133.092 254.972 132.986C257.698 132.642 260.107 130.526 260.372 127.642C260.53 126.081 260.213 124.309 260.716 123.066C261.43 121.293 262.781 120.235 264.449 119.891C265.454 119.68 266.619 119.944 268.022 119.838C271.092 119.547 273.316 117.272 273.607 114.362C273.713 113.146 273.396 111.902 273.713 110.527C274.295 108.49 275.857 106.876 278.293 106.532Z" fill="white"></path><path d="M195.413 103.464C199.039 102.961 202.109 105.58 201.713 109.495C201.501 111.849 199.595 114.019 196.974 114.283C193.057 114.733 190.436 111.505 190.78 108.093C190.939 106.691 191.495 105.924 191.68 105.633C192.395 104.628 193.666 103.755 195.413 103.464Z" fill="white"></path><path d="M231.731 99.6812C235.86 99.2843 239.142 103.517 237.13 107.591C236.336 109.204 234.457 110.554 232.339 110.606C227.098 110.712 225.245 104.416 228.21 101.295C229.083 100.395 230.275 99.7869 231.731 99.6812Z" fill="white"></path><path d="M232.79 87.6968C236.708 87.2471 239.699 90.4215 238.746 94.4424C238.243 96.6117 236.469 98.3576 234.061 98.5163C233.108 98.6222 232.341 98.3576 231.335 98.4634C228.264 98.675 225.987 100.871 225.643 103.939C225.484 105.553 225.855 107.061 225.352 108.41C224.743 110.024 223.182 111.373 221.434 111.69C220.085 111.981 218.92 111.637 217.808 111.743C214.843 112.087 212.62 114.468 212.408 117.431C212.355 118.383 212.62 119.441 212.408 120.711C211.958 122.986 209.999 124.679 207.882 124.943C206.929 125.049 206.028 124.89 205.155 124.943C201.925 125.102 199.517 127.298 199.252 130.684C199.199 131.742 199.411 133.461 199.04 134.599C198.034 137.615 194.011 139.387 190.834 137.324C187.102 134.863 187.817 128.462 192.449 127.457C194.011 127.113 194.858 127.562 196.287 127.404C198.458 127.192 199.861 125.79 200.576 124.679C201.131 123.832 201.529 122.774 201.634 121.663C201.74 120.605 201.423 119.494 201.74 118.039C202.19 116.187 203.514 114.865 205.367 114.309C206.823 113.859 208.384 114.256 209.761 114.018C212.328 113.568 214.049 111.849 214.605 109.389C214.896 108.225 214.499 106.664 214.817 104.997C215.214 103.093 216.537 101.929 217.887 101.32C219.238 100.712 220.667 101.109 222.52 100.924C225.193 100.633 227.364 98.5692 227.867 96.0297C228.079 94.7599 227.708 93.1992 227.973 91.7971C228.528 89.7602 230.275 88.0143 232.79 87.6968Z" fill="white"></path><path d="M268.657 83.969C271.992 83.5193 274.692 85.6355 274.956 88.6512C275.248 91.4818 273.342 94.3916 270.616 94.7884C269.054 95.0001 268.551 94.6297 267.148 94.7884C264.421 95.1324 262.118 97.3015 261.801 100.132C261.695 101.19 262.012 102.407 261.801 103.756C261.51 105.423 260.133 106.931 258.677 107.592C253.648 109.814 249.148 104.259 251.716 99.7882C252.563 98.3333 254.071 97.328 255.633 97.1693C256.48 97.0635 257.195 97.2751 258.201 97.2222C261.324 97.1164 263.839 94.8149 264.157 91.8257C264.316 90.1591 263.866 88.5984 264.501 87.1434C265.084 85.6355 266.46 84.2864 268.657 83.969Z" fill="white"></path><path d="M280.807 82.6172C285.439 82.0616 288.563 87.0084 286.154 90.9764C285.545 91.9817 284.142 93.1456 282.528 93.4366C281.31 93.6482 280.304 93.3308 279.245 93.4366C276.227 93.7276 273.951 96.0556 273.66 99.0712C273.554 100.42 273.871 101.637 273.607 102.748C273.104 104.6 271.436 106.267 269.584 106.663C268.578 106.875 267.518 106.663 266.565 106.663C263.336 106.769 260.716 109.071 260.425 112.404C260.319 113.568 260.636 114.97 260.319 116.134C259.207 119.705 254.283 121.424 251.212 118.303C248.248 115.34 249.81 110.208 253.489 109.203C254.495 108.912 255.766 109.203 256.904 109.15C260.08 109.044 262.383 106.796 262.807 103.965C263.098 102.246 262.648 100.182 263.362 98.7803C264.263 97.0608 265.824 96.0556 267.757 95.8704C268.657 95.8174 269.319 95.9761 270.325 95.9233C273.104 95.7117 275.459 93.7012 275.963 90.8971C276.174 89.4951 275.804 87.8285 276.174 86.4264C276.731 84.5747 278.398 82.8816 280.807 82.6172Z" fill="white"></path><path d="M222.016 76.8774C226.596 76.3748 229.481 81.4539 227.205 85.2367C226.596 86.2948 225.035 87.5911 223.367 87.7498C222.414 87.8556 221.514 87.644 220.746 87.6968C217.676 87.8556 215.108 90.0512 214.79 93.0405C214.685 94.0986 215.002 95.7652 214.737 97.0085C214.393 98.5164 213.122 99.7861 211.905 100.421C209.178 101.823 205.869 100.527 204.599 98.1989C202.878 95.0774 204.811 90.6068 208.437 90.1042C209.655 89.9454 210.793 90.2099 211.773 90.1042C213.943 89.8925 215.743 88.3847 216.564 86.771C216.723 86.4271 217.12 85.3161 217.172 84.7605C217.331 83.4114 217.067 81.7448 217.278 80.7925C217.782 78.7027 219.555 77.1419 222.016 76.8774Z" fill="white"></path><path d="M233.848 75.7145C238.321 75.159 241.657 79.7354 239.486 83.8093C238.771 85.079 237.474 86.2165 235.753 86.534C234.483 86.7456 233.398 86.4811 232.471 86.5869C229.692 86.8779 227.494 88.6503 226.992 91.4808C226.78 92.6977 227.098 94.1526 226.833 95.5017C226.436 97.618 224.61 99.5227 222.307 99.7872C221.142 99.893 220.242 99.6814 219.474 99.7343C216.51 99.9459 214.074 102.142 213.73 105.131C213.572 106.401 213.889 107.697 213.677 108.808C213.174 111.083 211.559 112.644 209.283 112.987C208.118 113.146 207.165 112.882 205.948 112.987C202.983 113.279 200.971 115.554 200.601 118.278C200.442 119.442 200.759 121.4 200.309 122.749C199.754 124.363 198.192 125.923 196.074 126.214C194.406 126.505 193.109 126.108 191.892 126.426C189.721 126.981 188.054 128.648 187.498 131.055C187.207 132.219 187.604 133.515 187.286 135.235C186.783 137.748 184.454 139.811 181.145 139.468C176.857 139.018 175.004 133.568 177.809 130.368C178.604 129.468 179.477 128.807 181.092 128.648C182.098 128.542 182.998 128.701 183.871 128.648C186.942 128.436 189.165 126.373 189.562 123.463C189.721 122.193 189.456 120.633 189.721 119.495C189.933 118.49 190.621 117.432 191.23 116.876C191.68 116.479 192.845 115.659 194.009 115.474C195.28 115.315 196.365 115.527 197.477 115.421C199.833 115.21 201.553 113.517 202.269 111.956C202.559 111.4 202.771 110.686 202.824 109.998C202.983 108.596 202.612 107.538 202.877 106.163C203.274 104.496 204.651 102.829 206.715 102.247C207.88 101.903 209.124 102.247 210.183 102.195C213.36 101.983 215.715 99.6814 216.033 96.5599C216.139 95.6075 215.927 94.7081 215.98 93.941C216.139 91.4808 217.939 89.4703 220.109 89.0471C221.327 88.7561 222.466 89.0471 223.524 88.9942C226.542 88.7825 228.765 86.7192 229.215 83.7034C229.374 82.4337 229.056 80.8729 229.321 79.5767C229.772 77.6456 231.544 75.979 233.848 75.7145Z" fill="white"></path><path d="M269.98 72.037C272.6 71.7461 274.559 73.1481 275.459 74.7618C277.365 78.0949 275.168 82.1688 271.833 82.8565C270.615 83.0682 269.874 82.7507 268.656 82.8565C265.427 83.0682 263.071 85.4754 262.912 88.7028C262.859 89.708 263.203 90.8719 262.912 92.0359C262.462 93.9935 260.689 95.7659 258.73 96.1627C257.327 96.4536 256.162 96.1098 255.156 96.2155C254.044 96.3743 253.303 96.6653 252.43 97.2737C251.159 98.1202 249.809 99.39 249.651 102.009C249.598 103.12 249.809 104.072 249.598 105.289C249.094 107.643 247.242 109.31 244.807 109.522C243.959 109.575 242.953 109.363 241.974 109.469C238.85 109.813 236.786 112.194 236.574 115.156C236.468 116.505 236.68 118.384 236.071 119.627C235.171 121.479 233.715 122.457 231.889 122.696C229.665 122.987 227.918 122.14 226.806 120.738C224.08 117.458 226.462 112.537 229.93 111.929C231.095 111.717 231.994 111.982 232.947 111.929C235.568 111.823 237.024 110.474 237.844 109.098C238.453 108.093 238.744 107.485 238.797 106.189C238.903 105.13 238.585 103.914 238.903 102.564C239.406 100.554 241.259 98.9932 243.139 98.6493C244.356 98.4906 245.812 98.808 247.268 98.4906C249.782 97.8822 251.503 95.9775 251.954 93.4644C252.112 92.3005 251.848 90.6868 252.244 89.2319C252.801 87.2743 254.309 85.8194 256.083 85.3961C257.353 85.0522 258.598 85.3961 259.656 85.3432C262.489 85.1315 264.686 83.1739 265.241 80.5021C265.533 79.2324 265.083 77.5923 265.453 76.1109C265.798 74.074 267.412 72.3016 269.98 72.037Z" fill="white"></path><path d="M134.424 147.167V147.881H130.135V158.542H129.288V147.881H125V147.167H134.424Z" fill="white"></path><path d="M145.04 147.167V158.542H144.14V153.146H136.543V158.542H135.643V147.167H136.543V152.405H144.14V147.167H145.04Z" fill="white"></path><path d="M153.721 147.168V147.882H148.374V152.458H153.562V153.173H148.374V157.802H153.853V158.516H147.5V147.141L153.721 147.168Z" fill="white"></path><path d="M167.908 149.072L164.07 158.648H163.858L159.278 147.167H160.178L163.964 156.585L167.749 147.167H168.04L171.825 156.585L175.611 147.167H176.511L171.931 158.648H171.72L167.908 149.072Z" fill="white"></path><path d="M180.854 147.116L186.095 158.543H185.142L183.369 154.575H177.783L176.01 158.543H175.03L180.272 147.116H180.854ZM183.024 153.914L180.563 148.571L178.101 153.914H183.024Z" fill="white"></path><path d="M194.061 147.167V147.881H189.773V158.542H188.873V147.881H184.585V147.167H194.061Z" fill="white"></path><path d="M201.528 147.168V147.882H196.181V152.458H201.37V153.173H196.181V157.802H201.66V158.516H195.308V147.141L201.528 147.168Z" fill="white"></path><path d="M203.327 147.167H206.239C207.457 147.167 208.409 147.458 209.018 147.961C209.68 148.464 209.971 149.178 209.971 150.078C209.971 151.426 209.256 152.299 207.8 152.855C208.198 153.014 208.7 153.648 209.309 154.574L211.877 158.542H210.924L208.912 155.421C208.251 154.362 207.747 153.754 207.351 153.464C206.953 153.172 206.451 153.067 205.736 153.067H204.227V158.542H203.327V147.167ZM204.227 147.908V152.379H206.133C207.086 152.379 207.8 152.22 208.357 151.824C208.859 151.426 209.151 150.871 209.151 150.157C209.151 149.443 208.859 148.94 208.357 148.543C207.853 148.146 207.086 147.934 206.133 147.934H204.227V147.908Z" fill="white"></path><path d="M226.646 148.014V148.967C225.242 148.253 223.919 147.856 222.569 147.856C221.219 147.856 220.001 148.358 218.995 149.31C218.042 150.263 217.54 151.48 217.54 152.935C217.54 154.39 218.042 155.606 218.995 156.506C219.948 157.458 221.166 157.908 222.674 157.908C223.892 157.908 225.242 157.511 226.751 156.744V157.643C225.401 158.358 224.078 158.702 222.727 158.702C221.007 158.702 219.551 158.146 218.387 157.035C217.222 155.924 216.666 154.522 216.666 152.908C216.666 151.295 217.275 149.84 218.44 148.729C219.604 147.618 221.007 147.062 222.621 147.062C223.972 147.062 225.295 147.353 226.646 148.014Z" fill="white"></path><path d="M233.848 147.062C235.515 147.062 236.971 147.618 238.135 148.729C239.3 149.84 239.856 151.242 239.856 152.855C239.856 154.469 239.3 155.871 238.135 156.982C236.971 158.093 235.515 158.649 233.848 158.649C232.18 158.649 230.724 158.093 229.612 156.982C228.447 155.871 227.892 154.469 227.892 152.855C227.892 151.242 228.447 149.84 229.612 148.729C230.777 147.618 232.154 147.062 233.848 147.062ZM233.901 157.882C235.303 157.882 236.521 157.379 237.474 156.426C238.427 155.475 238.93 154.257 238.93 152.855C238.93 151.454 238.427 150.236 237.474 149.284C236.521 148.331 235.303 147.829 233.901 147.829C232.497 147.829 231.28 148.331 230.274 149.284C229.268 150.236 228.818 151.454 228.818 152.855C228.818 154.257 229.321 155.475 230.274 156.426C231.28 157.432 232.444 157.882 233.901 157.882Z" fill="white"></path><path d="M250.285 147.167H251.185V153.358C251.185 155.024 250.735 156.373 249.835 157.326C248.935 158.278 247.824 158.728 246.367 158.728C244.911 158.728 243.8 158.278 242.953 157.326C242.053 156.426 241.603 155.157 241.603 153.595V147.194H242.503V153.543C242.503 154.892 242.847 155.95 243.562 156.718C244.276 157.511 245.229 157.881 246.341 157.881C247.453 157.881 248.406 157.485 249.12 156.718C249.835 155.924 250.179 154.813 250.179 153.437V147.194H250.285V147.167Z" fill="white"></path><path d="M263.625 147.167V158.542H262.91L254.255 148.623V158.542H253.354V147.167H254.069L262.725 157.087V147.167H263.625Z" fill="white"></path><path d="M275.511 148.014V148.967C274.108 148.253 272.785 147.856 271.435 147.856C270.085 147.856 268.868 148.358 267.862 149.31C266.908 150.263 266.406 151.48 266.406 152.935C266.406 154.39 266.908 155.606 267.862 156.506C268.815 157.458 270.032 157.908 271.541 157.908C272.759 157.908 274.108 157.511 275.617 156.744V157.643C274.267 158.358 272.943 158.702 271.594 158.702C269.873 158.702 268.417 158.146 267.253 157.035C266.088 155.924 265.532 154.522 265.532 152.908C265.532 151.295 266.141 149.84 267.305 148.729C268.47 147.618 269.873 147.062 271.488 147.062C272.838 147.062 274.161 147.353 275.511 148.014Z" fill="white"></path><path d="M278.08 147.167V158.542H277.18V147.167H278.08Z" fill="white"></path><path d="M281.362 147.167V157.828H287V158.542H280.462V147.167H281.362Z" fill="white"></path></g></g><defs><clipPath id="clip0_1762_41442"><rect width="162" height="87" fill="white" transform="translate(125 72)"></rect></clipPath></defs></svg> 