<?xml version="1.0" encoding="UTF-8"?> <svg xmlns="http://www.w3.org/2000/svg" width="413" height="232" viewBox="0 0 413 232" fill="none"><rect width="413" height="232" fill="#2968FE"></rect><g clip-path="url(#clip0_1762_41620)"><path d="M201.28 110.208C200.601 109.956 199.983 109.586 199.388 109.18C198.099 108.299 196.863 107.349 195.633 106.388C192.399 103.862 189.206 101.283 185.899 98.8523C182.412 96.2873 178.841 93.8512 175.05 91.7571C172.453 90.3219 169.775 89.0716 166.947 88.1689C165.046 87.5606 163.106 87.1373 161.108 87.0308C158.65 86.9019 156.223 87.1401 153.827 87.698C149.234 88.7688 144.973 90.6358 140.97 93.128C140.875 93.1868 140.75 93.2205 140.717 93.3522C140.775 93.4195 140.839 93.3831 140.898 93.369C142.637 92.9598 144.399 92.9429 146.164 93.1223C149.231 93.4335 152.179 94.2212 155.012 95.4463C157.951 96.7162 160.732 98.286 163.463 99.954C168.038 102.746 172.439 105.81 176.826 108.888C179.551 110.8 182.245 112.757 185.037 114.57C185.816 115.078 186.604 115.574 187.439 115.983C187.873 116.196 188.324 116.286 188.805 116.263C189.532 116.23 190.225 116.036 190.912 115.821C192.916 115.19 194.817 114.31 196.693 113.379C198.102 112.678 199.48 111.927 200.796 111.061C200.994 110.932 201.186 110.794 201.364 110.64C201.609 110.427 201.589 110.326 201.278 110.208H201.28Z" fill="white"></path><path d="M169.77 134.171C169.436 134.056 169.096 133.955 168.765 133.832C163.847 132.029 159.232 129.66 155.01 126.518C151.066 123.583 147.191 120.558 143.347 117.489C138.432 113.561 133.567 109.567 128.726 105.544C128.35 105.233 128.348 105.233 127.955 105.507C124.406 107.98 120.86 110.452 117.312 112.928C116.9 113.214 116.9 113.242 117.273 113.586C118.408 114.638 119.538 115.697 120.679 116.74C124.843 120.547 129.138 124.2 133.636 127.606C136.806 130.005 140.049 132.293 143.562 134.168C145.276 135.082 147.027 135.917 148.925 136.366C150.715 136.786 152.546 136.899 154.378 136.946C156.816 137.008 159.24 136.834 161.648 136.47C164.356 136.06 167.017 135.455 169.614 134.563C169.773 134.51 169.943 134.477 170.098 134.342C170.001 134.213 169.876 134.207 169.767 134.171H169.77Z" fill="white"></path><path d="M199.995 128.5C199.277 128.5 198.558 128.475 197.84 128.424C195.953 128.295 194.102 127.984 192.299 127.409C190.503 126.837 188.853 125.957 187.23 125.018C184.553 123.465 182.042 121.654 179.567 119.798C177.135 117.973 174.733 116.106 172.314 114.265C170.572 112.939 168.821 111.624 166.981 110.441C166.11 109.88 165.222 109.351 164.27 108.936C163.468 108.585 162.639 108.4 161.757 108.417C160.32 108.448 158.923 108.714 157.54 109.065C153.406 110.116 149.446 111.655 145.541 113.354C145.454 113.39 145.332 113.401 145.301 113.544C145.752 113.572 146.192 113.595 146.635 113.631C149.276 113.85 151.725 114.615 153.938 116.129C155.984 117.531 157.952 119.03 159.925 120.527C162.984 122.848 166.021 125.203 169.222 127.325C171.254 128.674 173.327 129.949 175.545 130.972C177.335 131.796 179.192 132.349 181.168 132.436C183.367 132.531 185.56 132.441 187.739 132.108C191.931 131.463 195.995 130.333 199.933 128.761C200.053 128.713 200.187 128.69 200.293 128.556C200.181 128.483 200.087 128.5 199.997 128.5H199.995Z" fill="white"></path><path d="M207.512 89.0127C209.038 93.5652 210.407 98.1682 211.816 102.76C212.283 104.282 212.734 105.807 213.199 107.329C213.316 107.713 213.344 107.733 213.728 107.643C214.262 107.52 214.788 107.526 215.32 107.649C215.657 107.725 215.679 107.702 215.804 107.369C215.84 107.27 215.874 107.17 215.907 107.069C216.558 105.137 217.201 103.203 217.858 101.271C218.799 98.5074 219.748 95.7462 220.697 92.9821C220.745 92.8392 220.77 92.6766 220.923 92.5672C221.048 92.6794 221.07 92.8251 221.115 92.9569C221.939 95.4126 222.743 97.8767 223.522 100.349C224.232 102.609 224.942 104.868 225.646 107.128C225.877 107.865 225.886 107.708 226.423 107.604C226.799 107.531 227.177 107.512 227.553 107.598C228.079 107.722 228.112 107.845 228.349 107.144C229.585 103.466 230.818 99.7857 232.07 96.1134C232.98 93.4503 233.871 90.7787 234.907 88.1605C234.934 88.0876 234.965 88.0119 234.979 87.9362C235.001 87.8241 234.951 87.754 234.831 87.7624C234.767 87.7652 234.701 87.7792 234.639 87.796C234.01 87.9726 233.381 88.0091 232.741 87.8465C232.446 87.7708 232.382 87.8297 232.301 88.138C232.204 88.5053 232.123 88.8809 232.02 89.2481C230.706 93.91 229.281 98.5354 227.801 103.144C227.762 103.262 227.762 103.41 227.606 103.48C227.486 103.365 227.464 103.203 227.416 103.057C225.799 98.1177 224.129 93.198 222.665 88.2109C222.543 87.7988 222.509 87.7708 222.078 87.8689C221.608 87.9755 221.148 87.9726 220.681 87.8633C220.277 87.768 220.241 87.8016 220.13 88.1969C219.937 88.8809 219.757 89.5677 219.548 90.2461C218.215 94.5436 216.781 98.8074 215.348 103.074C215.309 103.192 215.3 103.335 215.17 103.408C215.033 103.351 215.028 103.22 214.989 103.113C214.891 102.841 214.805 102.564 214.716 102.289C213.266 97.6692 211.868 93.0354 210.694 88.3343C210.558 87.7904 210.552 87.7848 210.006 87.8689C209.316 87.9755 208.629 88.0007 207.938 87.8773C207.835 87.8577 207.732 87.8409 207.629 87.8269C207.112 87.7484 207.084 87.7792 207.251 88.2642C207.337 88.5137 207.426 88.7604 207.51 89.0099L207.512 89.0127Z" fill="white"></path><path d="M226.988 114.088C225.752 112.115 223.971 110.859 221.78 110.2C219.091 109.39 216.377 109.379 213.708 110.256C210.39 111.347 208.281 113.612 207.465 117.051C207.106 118.568 207.084 120.104 207.298 121.64C207.485 122.986 207.91 124.253 208.62 125.411C209.892 127.485 211.757 128.752 214.051 129.433C215.353 129.82 216.689 129.972 218.042 129.938C218.381 129.93 218.643 130.039 218.883 130.274C219.339 130.717 219.718 131.219 220.024 131.771C220.316 132.301 220.589 132.839 220.867 133.378C221.273 134.168 221.797 134.872 222.434 135.486C222.699 135.741 222.724 135.735 222.955 135.466C223.456 134.877 224.09 134.552 224.856 134.485C225.089 134.465 225.32 134.44 225.624 134.409C225.457 134.157 225.268 134.059 225.098 133.947C224.335 133.431 223.734 132.764 223.269 131.97C223.03 131.561 222.788 131.155 222.545 130.748C222.378 130.465 222.198 130.19 221.983 129.941C221.599 129.49 221.527 129.492 222.184 129.254C225.217 128.141 227.238 126.058 228.098 122.899C228.566 121.183 228.594 119.443 228.315 117.693C228.112 116.404 227.675 115.196 226.982 114.091L226.988 114.088ZM224.839 122.739C224.683 123.423 224.455 124.079 224.135 124.702C223.308 126.316 222.039 127.41 220.31 127.937C218.799 128.396 217.263 128.421 215.737 128.046C213.497 127.494 212.005 126.07 211.181 123.919C210.708 122.689 210.555 121.396 210.491 119.939C210.485 118.913 210.591 117.749 210.878 116.606C211.067 115.849 211.356 115.131 211.754 114.458C212.561 113.102 213.708 112.168 215.197 111.683C216.915 111.128 218.649 111.12 220.372 111.658C222.097 112.196 223.353 113.303 224.16 114.932C224.622 115.86 224.892 116.847 225.025 117.87C225.243 119.501 225.204 121.127 224.836 122.736L224.839 122.739Z" fill="white"></path><path d="M277.517 106.284C277.662 106.174 277.746 106.034 277.768 105.855C277.815 105.462 277.868 105.07 277.904 104.677C277.929 104.417 277.846 104.321 277.592 104.198C277.4 104.103 277.3 104.215 277.189 104.333C277.125 104.4 277.064 104.467 276.994 104.529C275.847 105.577 274.533 106.233 272.95 106.135C271.377 106.037 270.15 105.336 269.404 103.895C268.983 103.085 268.828 102.208 268.839 101.297C268.844 100.904 268.905 100.851 269.301 100.834C270.737 100.77 272.176 100.756 273.615 100.772C274.308 100.781 275.001 100.789 275.694 100.817C276.465 100.848 277.236 100.848 278.007 100.848C278.338 100.848 278.408 100.786 278.425 100.464C278.464 99.6623 278.497 98.8606 278.347 98.0616C277.893 95.6564 276.254 94.0165 273.865 93.5764C273.15 93.4446 272.429 93.439 271.714 93.4951C269.276 93.6829 267.483 94.8519 266.495 97.1338C265.816 98.698 265.602 100.352 265.819 102.045C266.08 104.072 267.029 105.703 268.761 106.814C271.355 108.479 274.792 108.341 277.514 106.281L277.517 106.284ZM269.006 98.7316C269.167 97.8121 269.465 96.9487 270.044 96.2031C270.873 95.135 271.964 94.8042 273.256 95.0789C273.871 95.2107 274.358 95.5527 274.72 96.0685C275.299 96.8955 275.499 97.8402 275.53 98.8297C275.538 99.1185 275.466 99.1773 275.14 99.1858C274.174 99.2138 273.206 99.2362 272.24 99.2586C271.285 99.2699 270.333 99.1942 269.379 99.183C268.992 99.1773 268.942 99.1129 269.011 98.7288L269.006 98.7316Z" fill="white"></path><path d="M241.339 129.251C241.311 128.422 241.267 127.595 241.255 126.765C241.211 123.264 241.241 119.762 241.417 116.264C241.417 116.21 241.425 116.157 241.425 116.107C241.422 115.829 241.367 115.779 241.102 115.812C241.024 115.824 240.949 115.84 240.871 115.857C240.301 115.978 239.73 115.975 239.157 115.871C238.505 115.754 238.483 115.768 238.514 116.435C238.606 118.568 238.572 120.699 238.561 122.832C238.561 123.384 238.533 123.936 238.5 124.489C238.464 125.1 238.294 125.68 238.016 126.227C237.656 126.933 237.091 127.39 236.354 127.642C235.95 127.78 235.538 127.816 235.115 127.802C233.793 127.757 232.841 126.986 232.513 125.697C232.385 125.198 232.332 124.685 232.321 124.172C232.285 122.512 232.351 120.856 232.424 119.199C232.468 118.201 232.538 117.203 232.591 116.202C232.61 115.838 232.538 115.762 232.19 115.838C231.475 115.992 230.765 115.978 230.05 115.832C229.735 115.768 229.682 115.826 229.677 116.149C229.677 116.213 229.682 116.281 229.682 116.345C229.702 118.675 229.757 121.004 229.663 123.334C229.626 124.2 229.59 125.072 229.707 125.938C229.91 127.482 230.637 128.685 232.059 129.349C233.857 130.193 236.41 130.168 238.213 128.357C238.313 128.256 238.397 128.133 238.564 128.074C238.667 128.217 238.617 128.349 238.611 128.478C238.603 128.727 238.581 128.977 238.578 129.226C238.572 129.613 238.611 129.652 238.979 129.577C239.641 129.442 240.303 129.448 240.966 129.579C241.325 129.649 241.356 129.621 241.344 129.257L241.339 129.251Z" fill="white"></path><path d="M239.19 107.873C240.598 108.117 241.923 107.851 243.126 107.055C243.387 106.881 243.63 106.679 243.88 106.491C244.119 106.312 244.136 106.312 244.306 106.556C244.364 106.643 244.42 106.732 244.484 106.816C244.826 107.268 245.272 107.542 245.831 107.615C246.619 107.716 247.365 107.556 248.094 107.265C248.205 107.22 248.314 107.158 248.333 107.027C248.384 106.699 248.375 106.371 248.342 106.043C248.331 105.936 248.253 105.883 248.141 105.925C248.069 105.953 247.999 105.989 247.927 106.02C247.276 106.292 246.855 106.054 246.747 105.347C246.691 104.983 246.663 104.616 246.675 104.246C246.7 103.234 246.722 102.219 246.736 101.627C246.747 100.142 246.825 99.0765 246.8 98.0084C246.786 97.4281 246.75 96.8507 246.538 96.3012C245.954 94.7818 244.821 93.896 243.268 93.5932C241.13 93.1756 239.198 93.7194 237.467 95.0285C237.306 95.1491 237.228 95.2948 237.231 95.4967C237.236 95.8779 237.225 96.2592 237.231 96.6404C237.236 97.0945 237.545 97.288 237.957 97.103C238.071 97.0525 238.124 96.9432 238.191 96.8451C238.995 95.6789 240.148 95.2107 241.509 95.264C242.828 95.3145 243.63 96.0321 243.936 97.3272C244.036 97.7533 244.061 98.185 244.055 98.6195C244.05 98.984 243.883 99.2138 243.557 99.3456C243.218 99.4858 242.864 99.5811 242.505 99.6624C241.779 99.8306 241.038 99.9231 240.303 100.052C239.516 100.192 238.745 100.386 238.024 100.753C235.719 101.93 235.602 104.647 236.49 106.071C237.122 107.083 238.038 107.669 239.185 107.868L239.19 107.873ZM238.97 103.223C239.107 102.69 239.388 102.267 239.858 101.969C240.354 101.661 240.882 101.442 241.447 101.313C242.188 101.148 242.931 101 243.677 100.857C243.991 100.795 244.047 100.845 244.05 101.176C244.055 101.664 244.05 102.149 244.05 102.637C244.025 102.637 243.997 102.637 243.972 102.637C243.972 103.085 243.966 103.531 243.972 103.979C243.977 104.313 243.861 104.593 243.638 104.837C242.906 105.631 242.046 106.16 240.932 106.144C240.061 106.13 239.343 105.605 239.056 104.778C238.878 104.271 238.834 103.752 238.97 103.225V103.223Z" fill="white"></path><path d="M255.615 128.385C255.611 128.008 255.438 127.876 255.095 127.99C254.549 128.172 254.165 127.956 254.042 127.387C253.984 127.115 253.973 126.84 253.967 126.563C253.942 125.484 253.995 124.404 254.012 123.325C254.034 122.616 254.067 121.904 254.079 121.195C254.093 120.497 254.14 119.796 254.012 119.106C253.678 117.312 252.587 116.199 250.864 115.753C248.618 115.17 246.597 115.753 244.763 117.116C244.626 117.217 244.546 117.343 244.546 117.514C244.546 117.974 244.543 118.436 244.546 118.896C244.546 119.089 244.657 119.171 244.838 119.199C245.124 119.244 245.344 119.176 245.506 118.91C245.837 118.366 246.31 117.985 246.881 117.713C247.538 117.402 248.231 117.306 248.946 117.354C249.954 117.419 250.669 117.915 251.064 118.857C251.292 119.401 251.354 119.972 251.359 120.555C251.365 120.987 251.173 121.251 250.783 121.394C250.413 121.528 250.034 121.632 249.647 121.705C248.787 121.867 247.922 122.005 247.062 122.173C246.218 122.336 245.422 122.621 244.729 123.154C242.809 124.634 242.834 127.628 244.782 129.055C245.445 129.54 246.188 129.801 247.006 129.854C248.437 129.946 249.723 129.568 250.858 128.679C250.981 128.581 251.109 128.489 251.231 128.391C251.379 128.273 251.49 128.304 251.582 128.464C251.629 128.542 251.682 128.618 251.735 128.693C252.097 129.184 252.57 129.473 253.18 129.548C253.778 129.621 254.354 129.526 254.919 129.352C255.626 129.134 255.623 129.131 255.618 128.393L255.615 128.385ZM251.337 124.598C251.312 124.598 251.29 124.598 251.265 124.598C251.265 125.072 251.265 125.545 251.265 126.016C251.265 126.249 251.192 126.456 251.045 126.633C250.441 127.362 249.711 127.88 248.757 128.037C247.309 128.279 246.113 127.295 246.216 125.587C246.26 124.833 246.636 124.275 247.27 123.886C247.596 123.687 247.947 123.547 248.311 123.434C249.188 123.16 250.093 123.025 250.992 122.857C251.267 122.804 251.331 122.871 251.337 123.174C251.343 123.647 251.337 124.118 251.337 124.592V124.598Z" fill="white"></path><path d="M292.634 116.165C292.695 116.042 292.84 115.899 292.745 115.773C292.645 115.638 292.475 115.759 292.344 115.79C291.846 115.916 291.345 115.994 290.833 115.896C290.187 115.776 290.187 115.776 289.967 116.415C288.918 119.448 287.78 122.447 286.393 125.346C286.329 125.481 286.304 125.705 286.132 125.702C285.957 125.702 285.943 125.475 285.884 125.338C284.551 122.332 283.257 119.313 282.188 116.199C282.046 115.787 282.04 115.776 281.592 115.851C280.796 115.986 280.006 115.969 279.215 115.812C279.068 115.784 278.873 115.686 278.77 115.812C278.661 115.947 278.814 116.106 278.876 116.244C280.359 119.482 281.793 122.745 283.201 126.016C283.616 126.983 284.016 127.956 284.428 128.923C284.54 129.184 284.531 129.422 284.409 129.68C284.197 130.131 283.986 130.585 283.747 131.023C283.048 132.321 282.241 133.548 281.456 134.793C281.364 134.936 281.272 135.082 281.2 135.236C281.147 135.343 281.191 135.424 281.319 135.407C281.447 135.39 281.575 135.357 281.701 135.32C282.199 135.183 282.706 135.163 283.218 135.225C283.36 135.242 283.499 135.278 283.571 135.292C283.905 135.348 283.936 135.132 283.994 134.967C284.551 133.448 285.177 131.956 285.84 130.482C288.002 125.66 290.262 120.883 292.634 116.16V116.165Z" fill="white"></path><path d="M252.445 95.4941C252.425 95.8137 252.472 95.8585 252.798 95.8417C253.152 95.8277 253.502 95.7997 253.856 95.794C254.262 95.7884 254.312 95.8445 254.323 96.2426C254.329 96.4136 254.323 96.5846 254.323 96.7556C254.29 97.9526 254.254 99.1496 254.22 100.347C254.218 100.347 254.212 100.347 254.209 100.347C254.181 101.608 254.154 102.872 254.126 104.134C254.117 104.451 254.151 104.765 254.198 105.079C254.432 106.634 255.426 107.632 256.965 107.887C257.808 108.028 258.635 107.943 259.448 107.716C260.397 107.45 260.297 107.587 260.294 106.545C260.294 106.217 260.23 106.169 259.915 106.245C259.598 106.323 259.278 106.404 258.952 106.421C257.811 106.486 257.316 106.001 257.04 105.157C256.929 104.818 256.876 104.465 256.856 104.111C256.82 103.427 256.781 102.746 256.798 102.059C256.845 100.125 256.892 98.1937 256.943 96.2594C256.954 95.8557 257.012 95.8053 257.402 95.7912C257.494 95.7884 257.586 95.7912 257.677 95.7912C258.304 95.794 258.933 95.794 259.559 95.8417C259.904 95.8669 259.946 95.8081 259.935 95.4689C259.924 95.1801 259.915 94.8914 259.924 94.5998C259.94 94.042 259.946 94.0364 259.372 94.0504C258.746 94.0672 258.12 94.1009 257.491 94.1121C257.09 94.1205 257.021 94.0476 257.034 93.6579C257.062 93.002 257.098 92.3432 257.137 91.6872C257.162 91.2527 257.201 90.821 257.224 90.3865C257.238 90.0866 257.157 90.0137 256.859 90.0137C256.698 90.0137 256.55 90.0613 256.405 90.123C255.779 90.3865 255.15 90.6472 254.524 90.9135C254.151 91.0733 254.154 91.0761 254.17 91.5078C254.195 92.2171 254.226 92.9291 254.24 93.6383C254.248 93.9915 254.176 94.0588 253.825 94.0532C253.461 94.0476 253.093 94.014 252.729 94.0056C252.484 93.9999 252.422 94.0588 252.442 94.3083C252.472 94.7036 252.472 95.096 252.445 95.4913V95.4941Z" fill="white"></path><path d="M277.863 129.453C278.01 129.402 278.119 129.313 278.119 129.145C278.121 128.881 278.124 128.618 278.116 128.357C278.11 128.197 278.021 128.116 277.854 128.152C277.751 128.175 277.651 128.197 277.548 128.222C277.178 128.315 276.805 128.36 276.421 128.343C275.722 128.309 275.235 127.976 274.976 127.32C274.909 127.149 274.857 126.972 274.818 126.793C274.717 126.327 274.678 125.856 274.667 125.383C274.623 123.263 274.72 121.144 274.767 119.025C274.773 118.789 274.795 118.551 274.812 118.315C274.84 117.909 274.884 117.853 275.28 117.853C275.686 117.853 276.09 117.867 276.496 117.878C276.81 117.887 277.122 117.909 277.437 117.909C277.748 117.909 277.807 117.847 277.785 117.531C277.757 117.189 277.754 116.849 277.785 116.507C277.812 116.179 277.743 116.12 277.406 116.123C277.342 116.123 277.275 116.129 277.211 116.134C276.599 116.185 275.984 116.179 275.369 116.182C274.946 116.182 274.907 116.134 274.904 115.7C274.904 115.635 274.904 115.568 274.904 115.504C274.946 114.755 274.987 114.007 275.026 113.256C275.04 112.992 275.065 112.731 275.068 112.468C275.068 112.193 275.021 112.157 274.742 112.154C274.553 112.154 274.383 112.213 274.214 112.283C273.682 112.504 273.15 112.726 272.619 112.947C272.023 113.199 272.001 113.11 272.043 113.864C272.079 114.52 272.087 115.179 272.098 115.837C272.104 116.106 272.045 116.163 271.778 116.165C271.608 116.165 271.439 116.146 271.269 116.134C271.046 116.123 270.826 116.101 270.604 116.104C270.353 116.106 270.295 116.168 270.317 116.412C270.35 116.807 270.347 117.2 270.317 117.595C270.297 117.842 270.359 117.909 270.601 117.906C270.926 117.906 271.252 117.873 271.58 117.858C272.115 117.836 272.159 117.881 272.162 118.425C272.165 119.754 272.14 121.085 272.084 122.125C272.065 123.597 271.981 124.78 271.987 125.966C271.987 126.481 272.023 126.992 272.162 127.491C272.468 128.589 273.159 129.332 274.244 129.663C275.469 130.039 276.677 129.876 277.863 129.458V129.453Z" fill="white"></path><path d="M258.704 109.656C258.51 109.631 258.317 109.592 258.123 109.569C257.883 109.544 257.822 109.603 257.814 109.85C257.814 109.903 257.816 109.956 257.822 110.007C257.953 111.686 258.017 113.371 258.022 115.055C258.031 118.201 258.022 121.346 258.022 124.494C258.022 124.901 258.003 125.31 257.989 125.716C257.956 126.899 257.919 128.085 257.816 129.265C257.789 129.571 257.853 129.635 258.142 129.582C258.963 129.428 259.779 129.431 260.597 129.582C260.878 129.635 260.923 129.582 260.931 129.304C260.931 129.251 260.931 129.198 260.931 129.147C260.764 127.351 260.745 125.545 260.725 123.743C260.694 120.979 260.717 118.215 260.717 115.451C260.717 115.134 260.736 114.82 260.742 114.503C260.772 113.003 260.811 111.504 260.923 110.007C260.956 109.567 260.898 109.524 260.461 109.597C259.876 109.695 259.292 109.729 258.704 109.656Z" fill="white"></path><path d="M285.444 107.66C286.121 107.523 286.794 107.506 287.468 107.663C287.518 107.674 287.571 107.683 287.621 107.691C287.799 107.719 287.897 107.644 287.905 107.458C287.908 107.38 287.905 107.302 287.902 107.223C287.821 105.922 287.785 104.619 287.785 103.315C287.785 102.222 287.785 101.129 287.785 100.038C287.785 99.6541 287.81 99.2729 287.866 98.8973C287.958 98.2497 288.161 97.6442 288.553 97.1116C289.324 96.0659 290.677 95.9706 291.44 96.5677C291.624 96.7107 291.766 96.6602 291.933 96.5397C292.141 96.3883 292.172 96.1809 292.172 95.9482C292.172 95.3427 292.18 94.7372 292.333 94.1429C292.436 93.742 292.417 93.6859 292.03 93.5878C291.198 93.3748 290.396 93.4477 289.639 93.8766C289.121 94.1709 288.684 94.5662 288.297 95.0203C288.172 95.1689 288.066 95.3399 287.885 95.4604C287.783 95.3315 287.816 95.2221 287.824 95.1212C287.849 94.7932 287.88 94.4653 287.908 94.1373C287.944 93.7224 287.891 93.6747 287.476 93.7448C287.437 93.7504 287.398 93.7588 287.359 93.7672C286.789 93.9018 286.218 93.9018 285.648 93.7869C285.534 93.7644 285.417 93.7476 285.3 93.7308C285.122 93.7084 285.024 93.7813 285.021 93.9691C285.021 94.0756 285.021 94.1793 285.021 94.2858C285.044 94.9558 285.085 95.6286 285.085 96.2986C285.083 99.9569 285.18 103.618 285.016 107.276C284.996 107.719 285.021 107.744 285.444 107.66Z" fill="white"></path><path d="M264.091 128.315C264.066 128.629 264.038 128.946 264.015 129.26C263.993 129.585 264.04 129.627 264.369 129.582C264.408 129.576 264.447 129.568 264.486 129.56C265.201 129.434 265.916 129.436 266.632 129.554C267.127 129.635 267.152 129.61 267.119 129.117C267.119 129.103 267.119 129.092 267.116 129.077C266.946 127.295 266.888 125.506 266.905 123.715C266.919 122.187 266.882 120.662 266.946 119.134C266.988 118.147 267.024 117.161 267.119 116.196C267.127 115.832 267.069 115.779 266.74 115.824C266.687 115.829 266.637 115.84 266.584 115.849C265.894 115.983 265.207 115.978 264.519 115.843C264.441 115.829 264.366 115.812 264.288 115.804C264.107 115.782 264.013 115.863 264.015 116.045C264.015 116.124 264.027 116.202 264.032 116.28C264.132 117.343 264.199 118.408 264.21 119.473C264.233 121.447 264.227 123.423 264.221 125.397C264.221 126.372 264.166 127.345 264.091 128.315Z" fill="white"></path><path d="M280.432 138.21C279.19 137.734 277.918 137.731 276.677 138.208C275.032 138.838 274.47 140.243 274.531 141.664C274.603 143.259 275.6 144.459 277.111 144.846C277.584 144.966 278.066 144.986 278.55 145C278.837 144.98 279.123 144.969 279.41 144.941C281.164 144.764 282.344 143.61 282.558 141.863C282.759 140.243 281.935 138.788 280.432 138.21ZM281.225 142.488C280.944 143.59 280.181 144.282 279.062 144.434C278.581 144.501 278.099 144.476 277.626 144.344C276.824 144.123 276.27 143.615 275.989 142.836C275.647 141.885 275.658 140.924 276.02 139.979C276.284 139.29 276.791 138.827 277.487 138.597C278.188 138.365 278.901 138.365 279.605 138.597C280.334 138.836 280.832 139.323 281.108 140.044C281.286 140.503 281.353 140.983 281.336 141.479C281.35 141.818 281.311 142.157 281.228 142.488H281.225Z" fill="white"></path><path d="M236.237 138.09C235.227 137.784 234.2 137.793 233.181 138.073C232.499 138.261 231.903 138.609 231.439 139.155C230.111 140.722 230.308 144.069 233.237 144.843C233.696 144.964 234.166 144.983 234.756 144.989C234.965 144.997 235.288 144.972 235.614 144.936C237.348 144.745 238.567 143.497 238.695 141.709C238.803 140.204 238.144 138.667 236.234 138.09H236.237ZM237.272 142.755C236.944 143.739 236.223 144.266 235.229 144.425C234.751 144.504 234.264 144.487 233.79 144.355C232.953 144.12 232.371 143.598 232.09 142.76C231.945 142.334 231.876 141.894 231.892 141.443C231.881 141.087 231.926 140.733 232.015 140.389C232.285 139.343 232.947 138.709 233.996 138.502C234.514 138.398 235.037 138.401 235.55 138.541C236.393 138.768 236.977 139.29 237.261 140.125C237.559 141 237.562 141.886 237.27 142.757L237.272 142.755Z" fill="white"></path><path d="M291.584 138.031C291.532 138.031 291.479 138.031 291.429 138.031C291.081 138.04 291.061 138.062 291.064 138.426C291.064 138.491 291.064 138.558 291.07 138.623C291.145 139.873 291.139 141.123 291.136 142.373C291.136 142.525 291.17 142.687 291.081 142.822C290.925 142.828 290.861 142.715 290.777 142.637C290.407 142.284 290.034 141.933 289.672 141.572C288.551 140.45 287.432 139.323 286.313 138.196C286.213 138.096 286.121 137.978 285.987 137.916C285.817 137.838 285.7 137.897 285.684 138.084C285.667 138.253 285.678 138.426 285.684 138.597C285.739 140.506 285.684 142.413 285.519 144.316C285.472 144.849 285.472 144.854 285.987 144.857C286.026 144.857 286.065 144.86 286.104 144.857C286.391 144.851 286.424 144.821 286.424 144.543C286.424 144.451 286.41 144.358 286.405 144.268C286.313 142.928 286.36 141.583 286.357 140.243C286.357 140.156 286.335 140.044 286.432 139.993C286.535 139.94 286.599 140.038 286.663 140.094C286.752 140.17 286.836 140.257 286.919 140.338C288.32 141.72 289.72 143.105 291.064 144.543C291.153 144.638 291.242 144.739 291.345 144.818C291.571 144.992 291.746 144.919 291.774 144.638C291.788 144.495 291.782 144.35 291.782 144.204C291.782 142.586 291.732 140.966 291.846 139.349C291.868 139.021 291.902 138.693 291.918 138.365C291.932 138.062 291.893 138.031 291.587 138.025L291.584 138.031Z" fill="white"></path><path d="M257.986 138.247C257.947 138.163 257.914 138.076 257.861 138C257.741 137.829 257.569 137.829 257.446 138C257.385 138.084 257.343 138.183 257.299 138.278C257.026 138.847 256.759 139.416 256.486 139.985C255.757 141.499 255.028 143.013 254.301 144.529C254.142 144.86 254.159 144.882 254.513 144.866C254.577 144.866 254.643 144.86 254.708 144.857C255.131 144.849 255.131 144.849 255.275 144.431C255.481 143.834 255.732 143.256 255.966 142.671C256.074 142.399 256.247 142.292 256.533 142.298C257.068 142.309 257.605 142.317 258.139 142.292C258.504 142.275 258.713 142.407 258.855 142.752C259.102 143.36 259.384 143.955 259.612 144.571C259.662 144.706 259.706 144.857 259.89 144.857C260.252 144.86 260.611 144.857 260.978 144.857C260.998 144.731 260.951 144.65 260.912 144.571C259.868 142.494 258.963 140.349 257.986 138.241V138.247ZM258.011 141.664C257.594 141.681 257.176 141.675 256.759 141.659C256.542 141.65 256.475 141.555 256.547 141.387C256.801 140.812 257.068 140.246 257.343 139.649C257.547 139.755 257.577 139.907 257.638 140.033C257.839 140.445 258.039 140.86 258.223 141.28C258.348 141.56 258.301 141.653 258.011 141.667V141.664Z" fill="white"></path><path d="M214.474 144.47C213.472 142.458 212.584 140.394 211.654 138.348C211.604 138.241 211.562 138.127 211.496 138.031C211.368 137.849 211.176 137.849 211.045 138.031C210.984 138.115 210.942 138.213 210.897 138.309C209.954 140.333 208.982 142.345 207.997 144.35C207.95 144.445 207.902 144.538 207.866 144.636C207.791 144.835 207.816 144.874 208.016 144.874C208.133 144.874 208.25 144.863 208.37 144.863C208.735 144.86 208.74 144.863 208.865 144.501C209.091 143.868 209.339 143.248 209.603 142.631C209.698 142.413 209.834 142.301 210.079 142.301C210.694 142.306 211.306 142.306 211.922 142.301C212.161 142.301 212.311 142.393 212.406 142.617C212.626 143.153 212.871 143.677 213.085 144.212C213.369 144.916 213.26 144.852 213.998 144.866C214.104 144.866 214.207 144.866 214.312 144.866C214.602 144.866 214.627 144.818 214.51 144.538C214.499 144.512 214.488 144.49 214.477 144.468L214.474 144.47ZM211.707 141.653C211.473 141.675 211.237 141.659 211.003 141.659C211.003 141.67 211.003 141.678 211.003 141.689C210.78 141.678 210.56 141.673 210.338 141.65C210.176 141.633 210.098 141.538 210.174 141.376C210.407 140.863 210.644 140.347 210.892 139.842C210.975 139.671 211.081 139.677 211.17 139.856C211.415 140.35 211.649 140.848 211.874 141.353C211.96 141.544 211.91 141.633 211.707 141.653Z" fill="white"></path><path d="M247.131 138.205C246.483 137.98 245.815 137.866 245.127 137.877C244.918 137.885 244.707 137.885 244.501 137.905C242.886 138.073 241.305 138.942 241.119 141.123C240.974 142.833 241.812 144.361 243.694 144.854C244.292 145.011 244.91 145.022 245.525 144.969C245.957 144.933 246.382 144.868 246.789 144.706C246.897 144.661 247.009 144.619 247.109 144.557C247.301 144.439 247.46 143.968 247.323 143.822C247.131 143.615 246.984 143.873 246.819 143.935C246.747 143.963 246.683 144.01 246.613 144.05C246.051 144.375 245.447 144.501 244.804 144.459C243.655 144.386 242.772 143.677 242.472 142.558C242.274 141.832 242.28 141.098 242.461 140.372C242.619 139.738 242.959 139.211 243.515 138.858C244.381 138.306 245.781 138.25 246.697 138.976C247.212 139.382 247.231 139.365 247.401 138.723C247.496 138.364 247.482 138.331 247.128 138.208L247.131 138.205Z" fill="white"></path><path d="M227.163 141.193C226.835 141.033 226.487 140.916 226.147 140.778C225.844 140.658 225.54 140.529 225.293 140.305C224.872 139.926 224.82 139.329 225.165 138.88C225.613 138.297 226.64 138.286 227.094 138.864C227.174 138.967 227.233 139.088 227.316 139.186C227.453 139.346 227.586 139.326 227.673 139.13C227.745 138.962 227.789 138.78 227.862 138.611C227.951 138.407 227.862 138.297 227.695 138.196C226.89 137.714 225.426 137.79 224.658 138.325C223.709 138.99 223.634 140.663 224.736 141.311C225.042 141.49 225.365 141.633 225.694 141.762C225.997 141.88 226.309 141.987 226.593 142.152C227.016 142.396 227.255 142.743 227.197 143.251C227.138 143.75 226.888 144.109 226.417 144.296C225.758 144.563 224.981 144.366 224.488 143.811C224.419 143.733 224.363 143.64 224.291 143.565C224.126 143.391 224.001 143.422 223.926 143.654C223.882 143.792 223.856 143.935 223.823 144.075C223.745 144.414 223.759 144.437 224.04 144.624C224.511 144.936 225.045 144.975 225.582 144.983C225.844 144.986 226.105 144.969 226.362 144.916C227.096 144.767 227.664 144.378 228.001 143.694C228.513 142.656 228.187 141.689 227.158 141.185L227.163 141.193Z" fill="white"></path><path d="M220.066 141.123C220.007 141.098 219.946 141.07 219.885 141.047C219.592 140.932 219.297 140.823 219.008 140.705C218.763 140.607 218.532 140.487 218.334 140.31C217.922 139.943 217.881 139.267 218.24 138.85C218.732 138.281 219.718 138.311 220.171 138.908C220.244 139.004 220.297 139.11 220.375 139.197C220.503 139.34 220.622 139.323 220.709 139.144C220.773 139.015 220.814 138.875 220.862 138.737C220.987 138.376 220.973 138.309 220.631 138.154C219.673 137.725 218.724 137.765 217.803 138.269C217.497 138.437 217.282 138.707 217.137 139.026C216.739 139.912 217.026 140.848 217.853 141.356C218.178 141.555 218.538 141.678 218.891 141.818C219.183 141.933 219.481 142.04 219.743 142.219C220.063 142.438 220.274 142.727 220.26 143.136C220.241 143.744 219.865 144.218 219.272 144.358C218.607 144.515 218.031 144.341 217.561 143.837C217.471 143.741 217.402 143.626 217.307 143.537C217.168 143.402 217.051 143.433 216.987 143.624C216.937 143.772 216.909 143.929 216.873 144.083C216.792 144.431 216.812 144.456 217.121 144.652C217.574 144.941 218.084 144.961 218.632 144.992C219.233 144.992 219.851 144.907 220.38 144.509C221.015 144.03 221.313 143.385 221.262 142.592C221.215 141.821 220.709 141.409 220.063 141.123H220.066Z" fill="white"></path><path d="M267.355 137.995C267.277 137.995 267.199 137.997 267.118 138.003C265.668 138.07 264.218 138.076 262.765 138.003C262.634 137.997 262.504 137.995 262.373 138C262.25 138.003 262.178 138.07 262.172 138.196C262.167 138.275 262.172 138.353 262.172 138.432C262.172 138.788 262.172 138.794 262.512 138.777C262.929 138.757 263.347 138.721 263.764 138.704C264.341 138.684 264.377 138.715 264.38 139.281C264.385 140.125 264.38 140.966 264.38 141.81C264.38 142.704 264.402 143.601 264.33 144.495C264.302 144.823 264.352 144.86 264.675 144.865C264.819 144.865 264.961 144.865 265.106 144.865C265.521 144.865 265.532 144.854 265.515 144.451C265.446 142.687 265.462 140.924 265.485 139.158C265.49 138.757 265.551 138.695 265.947 138.704C266.378 138.715 266.81 138.749 267.238 138.771C267.706 138.794 267.706 138.791 267.689 138.339C267.678 138.031 267.653 138.003 267.349 137.995H267.355Z" fill="white"></path><path d="M265.582 114.556C266.512 114.553 267.283 113.785 267.291 112.857C267.302 111.899 266.548 111.133 265.585 111.119C264.658 111.108 263.871 111.868 263.851 112.793C263.829 113.749 264.625 114.559 265.582 114.556Z" fill="white"></path><path d="M250.928 138.037C250.374 138.037 250.313 137.95 250.34 138.639C250.416 140.518 250.416 142.396 250.34 144.277C250.335 144.395 250.34 144.512 250.34 144.633C250.343 144.773 250.41 144.857 250.555 144.86C250.802 144.86 251.05 144.86 251.298 144.86C251.443 144.86 251.512 144.779 251.512 144.636C251.512 144.518 251.515 144.4 251.512 144.28C251.462 143.335 251.429 142.39 251.445 141.474C251.434 140.509 251.462 139.576 251.509 138.645C251.543 137.975 251.501 138.037 250.931 138.04L250.928 138.037Z" fill="white"></path><path d="M271.595 138.889C271.603 138.704 271.611 138.522 271.603 138.337C271.595 138.082 271.553 138.042 271.3 138.037C271.091 138.031 270.882 138.037 270.673 138.037C270.515 138.037 270.431 138.115 270.428 138.278C270.428 138.381 270.428 138.488 270.428 138.592C270.453 139.55 270.523 140.509 270.49 141.459C270.52 142.415 270.459 143.36 270.428 144.308C270.412 144.86 270.414 144.857 270.943 144.86C271.603 144.86 271.631 144.983 271.595 144.173C271.514 142.413 271.5 140.652 271.592 138.892L271.595 138.889Z" fill="white"></path><path d="M292.62 125.556C291.24 125.542 290.16 126.599 290.149 127.973C290.137 129.318 291.24 130.437 292.584 130.44C293.923 130.442 294.994 129.366 295 128.009C295.006 126.633 293.973 125.57 292.617 125.556H292.62ZM292.598 130.016C291.468 130.022 290.574 129.147 290.56 128.012C290.544 126.868 291.446 125.957 292.59 125.96C293.722 125.96 294.596 126.843 294.602 127.987C294.607 129.125 293.734 130.011 292.598 130.016Z" fill="white"></path><path d="M293.127 128.447C292.954 128.206 292.946 128.203 293.177 128.04C293.455 127.844 293.566 127.583 293.486 127.253C293.408 126.93 293.171 126.79 292.862 126.74C292.537 126.689 292.211 126.686 291.885 126.703C291.607 126.72 291.54 126.784 291.532 127.065C291.521 127.379 291.532 127.695 291.532 128.012C291.532 128.301 291.529 128.59 291.532 128.878C291.537 129.206 291.599 129.335 291.743 129.31C291.985 129.268 291.921 129.058 291.938 128.898C291.949 128.794 291.938 128.688 291.947 128.584C291.974 128.284 292.155 128.175 292.434 128.29C292.559 128.34 292.651 128.436 292.726 128.545C292.834 128.707 292.935 128.878 293.038 129.044C293.093 129.134 293.138 129.234 293.23 129.288C293.335 129.352 293.458 129.377 293.555 129.282C293.639 129.201 293.572 129.106 293.525 129.033C293.399 128.834 293.269 128.637 293.132 128.444L293.127 128.447ZM292.72 127.827C292.609 127.855 292.489 127.855 292.439 127.864C292.005 127.861 291.908 127.752 291.941 127.393C291.963 127.16 292.019 127.096 292.253 127.079C292.395 127.068 292.539 127.07 292.679 127.09C292.921 127.124 293.063 127.272 293.063 127.46C293.063 127.634 292.94 127.777 292.72 127.83V127.827Z" fill="white"></path></g><defs><clipPath id="clip0_1762_41620"><rect width="178" height="58" fill="white" transform="translate(117 87)"></rect></clipPath></defs></svg> 